# xmcd
#
# Track frame offsets: 
#        150
#        12165
#        22169
#        30330
#        41444
#        51214
#        62460
#        70000
#        82242
#        93021
#        103946
#        114767
#        127371
#
# Disc length: 1802 seconds
#
# Revision: 0
# Processed by: cddbd v1.5.2PL0 Copyright (c) Steve Scherf et al.
# Submitted via: ExactAudioCopy v0.99pb5
#
DISCID=a407080d
DTITLE=Johnny Cash - I Walk The Line
DYEAR=2010
DGENRE=Country
TTITLE0=Home Of The Blues
TTITLE1=Get Rhythm
TTITLE2=Guess Things Happen That Way
TTITLE3=Don't Make Me Go
TTITLE4=The Rock Island Line
TTITLE5=Clementine
TTITLE6=Come In Stranger
TTITLE7=I Walk The Line
TTITLE8=Train Of Love
TTITLE9=Cry, Cry, Cry
TTITLE10=I Heard That Lonesome Whistle
TTITLE11=Folsom Prison Blues
TTITLE12=The Wreck Of The Old
EXTD=
EXTT0=
EXTT1=
EXTT2=
EXTT3=
EXTT4=
EXTT5=
EXTT6=
EXTT7=
EXTT8=
EXTT9=
EXTT10=
EXTT11=
EXTT12=
PLAYORDER=
